<svg data-v-fde0c5aa="" xmlns="http://www.w3.org/2000/svg" viewBox="0 0 300 300" class="icon"><!----><defs data-v-fde0c5aa=""><!----></defs><rect data-v-fde0c5aa="" fill="transparent" x="0" y="0" width="300px" height="300px" class="logo-background-square"></rect><!----><defs data-v-fde0c5aa=""><linearGradient data-v-fde0c5aa="" gradientTransform="rotate(25)" id="2efcec5e-7bf9-4aed-b0f9-782766aa63c7" x1="0%" y1="0%" x2="100%" y2="0%"><stop data-v-fde0c5aa="" offset="0%" stop-color="#EA1F59" stop-opacity="1"></stop><stop data-v-fde0c5aa="" offset="100%" stop-color="#FA9169" stop-opacity="1"></stop></linearGradient></defs><g data-v-fde0c5aa="" id="743079bd-f5e4-4bbd-9bf9-ce3955b39c3b" fill="url(#2efcec5e-7bf9-4aed-b0f9-782766aa63c7)" stroke="none" transform="matrix(2.3151114043152226,0,0,2.3151114043152226,34.19738023892603,34.21222148921194)"><path d="M54.2 2.5c-5.5 0-10.8 1.2-15.5 3.5-12.4 5.8-21 18.3-21 32.8v6L10.3 59c-1.9 3.6-.1 6.5 3.9 6.5h3.5V78.9c0 4.2 3.4 7.6 7.6 7.6l10.5-1.6v10.6c0 1.3 1.2 2.2 2.6 2l37.7-6.7c1.4-.3 2.6-1.6 2.6-3.1V65.5c7.2-6.6 11.8-16.1 11.8-26.7-.1-20-16.3-36.3-36.3-36.3zm0 62.7c-14.7 0-26.6-12-26.6-26.6 0-14.7 12-26.6 26.6-26.6 14.7 0 26.6 12 26.6 26.6 0 14.7-11.9 26.6-26.6 26.6zm10.5-31.7l-.1-3.5c0-5.6-4.6-10.2-10.2-10.2S44.2 24.4 44.2 30v3.5H44c-1.5 0-2.7 1.2-2.7 2.7V51c0 1.5 1.2 2.7 2.7 2.7h20.7c1.5 0 2.7-1.2 2.7-2.7V36.2c0-1.5-1.2-2.7-2.7-2.7zm-8.8 10.8c-.2.1-.3.3-.3.5v3.3c0 .5-.2.9-.6 1.1-1 .5-1.9-.2-1.9-1.1v-3.3c0-.2 0-.4-.2-.5-1-.7-1.3-2-.8-3.1s1.6-1.7 2.8-1.5c1.2.2 2.1 1.2 2.1 2.5 0 .9-.4 1.6-1.1 2.1zm4.2-10.8H48.7V30c0-3.2 2.6-5.7 5.7-5.7s5.7 2.6 5.7 5.7v3.5z"></path></g><!----></svg>